# xmcd
#
# Track frame offsets:
#	150
#	19808
#	38658
#	54331
#	68435
#	90242
#	104227
#	121745
#	136927
#	152558
#	164292
#
# Disc length: 2438 seconds
#
# Revision: 1
# Processed by: cddbd v1.5.2PL0 Copyright (c) Steve Scherf et al.
# Submitted via: audiograbber 1.83.01
#
DISCID=7e09840b
DTITLE=Gina Jeffreys - Old Paint
DYEAR=2010
DGENRE=Country
TTITLE0=It Doesn't Matter Anymore
TTITLE1=Blue Bayou
TTITLE2=Dream A Little Dream Of Me
TTITLE3=I'm So Lonesome I Could Cry
TTITLE4=Crazy
TTITLE5=Here, There and Everywhere
TTITLE6=You Don't Know Me
TTITLE7=He Thinks I Still Care
TTITLE8=When You Wish Upon A Star
TTITLE9=Old Paint
TTITLE10=Smile
EXTD=
EXTT0=
EXTT1=
EXTT2=
EXTT3=
EXTT4=
EXTT5=
EXTT6=
EXTT7=
EXTT8=
EXTT9=
EXTT10=
PLAYORDER=
